<svg width="276" height="51" viewBox="0 0 276 51" fill="none" xmlns="http://www.w3.org/2000/svg">
<g clip-path="url(#clip0_3_251)">
<path d="M10.0777 18.8736V50.1525H1.61127V19.5509L10.0777 18.8736ZM7.86967 0.979132C10.6501 0.184758 13.9878 0.340687 14.3109 0.604444L14.2433 0.661632C13.4894 1.28353 11.724 2.32306 11.6487 7.34336L11.6469 7.50155C11.6233 10.5308 10.0905 12.5604 8.32468 13.5936C6.5381 14.639 1.58364 15.1416 0.200195 14.5036C1.0838 13.7426 1.41975 11.1756 1.60322 9.40737L1.67426 8.70138L1.69909 8.47399C1.98672 5.98761 2.95538 2.38314 7.86967 0.979132Z" fill="#74AC00"/>
<path d="M210.75 3.00977V50.1832H203.012V3.6828L210.75 3.00977ZM167.417 18.9785L166.925 25.7444C165.57 25.4369 164.585 25.3139 163.539 25.3139C161.322 25.3139 159.044 26.1135 157.135 28.8814V50.1633H149.439V19.3476L156.623 18.5068L156.643 21.8059C158.404 18.5068 162.322 18.5068 164.154 18.4864C165.016 18.4769 166.371 18.6095 167.417 18.9785ZM143.253 18.2479V49.2323L136.338 49.9072L136.094 46.6859C133.34 49.9378 129.975 50.1526 126.425 50.1526C119.205 50.1526 115.717 45.4896 115.717 37.5748V18.9841L123.366 18.2479V36.1023C123.366 41.2561 125.14 43.2932 128.995 43.2932C131.015 43.2932 135.585 41.4352 135.585 37.0764L135.604 18.9841L143.253 18.2479ZM72.761 18.0098C81.5971 18.0098 85.0947 21.8584 85.0947 30.0442L85.0954 41.2415C85.1078 44.0254 85.3176 45.0067 88.6537 44.8942L88.4083 49.6537L88.2861 49.6824C86.8452 50.0022 81.455 50.6381 78.6518 47.3666C75.9518 49.9935 72.761 50.1424 69.202 50.1424C63.7408 50.1424 59.7523 46.9658 59.7523 41.6511C59.7523 36.8251 63.0659 30.9766 77.6086 30.8545V29.8771L77.6075 29.6202C77.5702 25.4786 76.5912 23.9965 71.8406 23.9965C69.3248 23.9965 66.1953 24.5463 62.0841 26.1957L61.5932 20.6977C64.784 18.9261 69.3861 18.0098 72.761 18.0098ZM182.777 18.0098C191.613 18.0098 195.111 21.8584 195.111 30.0442L195.111 41.2415C195.124 44.0254 195.334 45.0067 198.67 44.8942L198.424 49.6537L198.302 49.6824C196.861 50.0022 191.471 50.6381 188.668 47.3666C185.968 49.9935 182.777 50.1424 179.218 50.1424C173.757 50.1424 169.768 46.9658 169.768 41.6511C169.768 36.8251 173.082 30.9766 187.625 30.8545V29.8771C187.625 25.5398 186.704 23.9965 181.857 23.9965C179.341 23.9965 176.211 24.5463 172.1 26.1957L171.609 20.6977C174.8 18.9261 179.402 18.0098 182.777 18.0098ZM242.274 18.0098C244.71 18.0098 248.181 18.439 250.678 19.4815L250.191 25.0618C247.085 24.0806 244.528 23.774 242.64 23.774C238.962 23.774 237.612 25.3968 237.585 27.0952L237.585 27.1467C237.585 28.7411 238.316 29.7222 241.848 30.7647L244.71 31.5619C250.191 33.0949 251.896 36.345 251.896 40.0243C251.896 44.6848 248.547 50.1424 239.412 50.1424C236.672 50.1424 233.383 49.5292 230.46 48.3028L230.338 42.4159C234.175 43.8876 236.611 44.2555 238.864 44.2555C242.822 44.2555 244.284 42.2932 244.284 40.4536L244.283 40.3654L244.281 40.2757C244.23 38.8731 243.522 37.5857 239.899 36.4676L236.976 35.6705C232.226 34.3214 230.338 31.7459 230.277 27.6373C230.277 22.5476 233.931 18.0098 242.274 18.0098ZM25.9601 6.58119L47.4074 37.9698V6.58119H54.8982V50.1084H46.1803L24.7331 18.5359V50.1084H17.1809V6.58119H25.9601ZM224.861 18.8541V50.0166H217.153V19.5288L224.861 18.8541ZM101.474 9.43834L101.485 19.223H110.091L109.786 25.0975H101.485V38.5599C101.485 42.5987 103.499 43.7001 106.063 43.7001C107.222 43.7001 108.687 43.5165 110.824 42.7822L110.763 48.4732C108.443 49.5134 105.94 50.003 104.048 50.003C98.4937 50.003 93.8547 47.8612 93.8547 39.3554V25.0975H89.8872V19.7738L94.0378 19.1618L93.9861 10.1208L101.474 9.43834ZM266.555 9.43834L266.509 19.223H275.115L274.81 25.0975H266.509V38.5599C266.509 42.5987 268.523 43.7001 271.087 43.7001C272.246 43.7001 273.711 43.5165 275.848 42.7822L275.787 48.4732C273.467 49.5134 270.965 50.003 269.072 50.003C263.518 50.003 258.879 47.8612 258.879 39.3554V25.0975H254.911V19.7738L259.062 19.1618L259.067 10.1208L266.555 9.43834ZM67.2038 40.8569C67.2038 42.995 68.9219 44.5834 71.99 44.5834C74.2604 44.5834 76.224 43.8503 78.0648 42.262V35.9698C69.5355 35.7866 67.2038 38.3523 67.2038 40.8569ZM177.22 40.8569C177.22 42.995 178.938 44.5834 182.006 44.5834C184.276 44.5834 186.24 43.8503 188.081 42.262V35.9698C179.552 35.7866 177.22 38.3523 177.22 40.8569ZM220.976 4.43834C223.936 4.43834 225.724 6.40133 225.724 9.0391C225.724 11.7382 223.751 13.5785 220.915 13.5785C217.893 13.5785 216.166 11.6155 216.166 8.97776C216.166 6.33999 218.14 4.43834 220.976 4.43834Z" fill="white"/>
</g>
<defs>
<clipPath id="clip0_3_251">
<rect width="275.758" height="50" fill="white" transform="translate(0.200195 0.390625)"/>
</clipPath>
</defs>
</svg>
